<mxfile host="app.diagrams.net" modified="2023-02-16T05:09:53.553Z" agent="5.0 (Windows NT 10.0; Win64; x64) AppleWebKit/537.36 (KHTML, like Gecko) Chrome/110.0.0.0 Safari/537.36" etag="JopBZOJ5YZYRAZr5DjiR" version="20.8.18" type="github">
  <diagram name="第 1 页" id="y4gm_-KfzbwpHg6c1PfQ">
    <mxGraphModel dx="1674" dy="1933" grid="1" gridSize="10" guides="1" tooltips="1" connect="1" arrows="1" fold="1" page="1" pageScale="1" pageWidth="827" pageHeight="1169" math="0" shadow="0">
      <root>
        <mxCell id="0" />
        <mxCell id="1" parent="0" />
        <mxCell id="x1p29n8qixUkfzAq273U-1" value="&lt;h1 style=&quot;line-height: 120%;&quot;&gt;20230206-20230210&lt;/h1&gt;&lt;h2 style=&quot;line-height: 120%;&quot;&gt;&lt;font face=&quot;Lucida Console&quot;&gt;本周工作&lt;/font&gt;&lt;/h2&gt;&lt;div style=&quot;line-height: 120%;&quot;&gt;&lt;font style=&quot;font-size: 11px;&quot; face=&quot;Lucida Console&quot;&gt;1. 审核2月14日凌晨割接方案，并在省电子运维、5GC子系统上单&lt;/font&gt;&lt;/div&gt;&lt;div style=&quot;line-height: 120%;&quot;&gt;&lt;ul style=&quot;line-height: 120%;&quot;&gt;&lt;li&gt;&lt;font style=&quot;&quot; face=&quot;Lucida Console&quot;&gt;割接操作包括：广西电信5GC核心网埌东DC1 UPF16进行17U/19U补丁升级&amp;amp;看门狗配置操作&lt;/font&gt;&lt;/li&gt;&lt;/ul&gt;&lt;font face=&quot;Lucida Console&quot;&gt;&lt;span style=&quot;&quot;&gt; &lt;/span&gt;&lt;span style=&quot;&quot;&gt; &lt;/span&gt;&amp;nbsp;&lt;span style=&quot;&quot;&gt; &lt;/span&gt;&lt;span style=&quot;&quot;&gt; &lt;/span&gt;&amp;nbsp;广西电信5GC核心网民族DC2 EMS+三期虚机扩容操作（上单后因方案问题取消，计划延迟至2月22日）&lt;br&gt;&lt;/font&gt;&lt;div&gt;&lt;div&gt;&lt;div&gt;&lt;font face=&quot;Lucida Console&quot;&gt;&lt;br&gt;&lt;/font&gt;&lt;/div&gt;&lt;/div&gt;&lt;/div&gt;&lt;div&gt;&lt;font face=&quot;Lucida Console&quot;&gt;2. 统计5GC核心网设备关键指标&lt;/font&gt;&lt;/div&gt;&lt;div&gt;&lt;font face=&quot;Lucida Console&quot;&gt;3. 统计EM、TECS设备纳管清单，并与5GC子系统纳管清单比对&lt;/font&gt;&lt;/div&gt;&lt;div&gt;&lt;font face=&quot;Lucida Console&quot;&gt;4. 第一次参加“维护小组”组会，了解分工以及上割接单流程&lt;/font&gt;&lt;/div&gt;&lt;div&gt;&lt;font face=&quot;Lucida Console&quot;&gt;5. 参加中兴周例会，了解2月-5月割接计划&lt;/font&gt;&lt;/div&gt;&lt;div&gt;&lt;font face=&quot;Lucida Console&quot;&gt;6. 在Linux云主机上使用Docker搭建Postgres数据库，创建用户并开放IP:PORT连接方式&lt;/font&gt;&lt;/div&gt;&lt;div&gt;&lt;font face=&quot;Lucida Console&quot;&gt;7. 配合客户经理核查&lt;/font&gt;nnjg3g.vpdn.gx域名下用户正常使用业务问题，核查设备LNS1上未配置地址池。&lt;/div&gt;&lt;div&gt;但用户使用静态IP地址，因此LNS1可正常下发IP地址，后与客户经理沟通，确认用户已正常使用业务，&lt;/div&gt;&lt;div&gt;待确认是否配置地址池、哪一段地址池&lt;/div&gt;&lt;div&gt;&lt;br&gt;&lt;/div&gt;&lt;div&gt;&lt;br&gt;&lt;/div&gt;&lt;div&gt;&lt;br&gt;&lt;/div&gt;&lt;div&gt;&lt;h1 style=&quot;border-color: var(--border-color); line-height: 28.8px;&quot;&gt;20230213-20230217&lt;/h1&gt;&lt;/div&gt;&lt;div&gt;&lt;h2 style=&quot;border-color: var(--border-color); line-height: 21.6px;&quot;&gt;&lt;font style=&quot;border-color: var(--border-color);&quot; face=&quot;Lucida Console&quot;&gt;本周工作&lt;/font&gt;&lt;/h2&gt;&lt;/div&gt;&lt;div&gt;&lt;font style=&quot;border-color: var(--border-color);&quot; face=&quot;Lucida Console&quot;&gt;1. 配合集团梳理160、168、179、200、201码号的业务情况。目前1681、1682、1686、1688仍有业务，&lt;/font&gt;&lt;/div&gt;&lt;div&gt;&lt;font style=&quot;border-color: var(--border-color);&quot; face=&quot;Lucida Console&quot;&gt;作为广西高考、中考查询；17900、17901、17909有长途电话业务。&lt;/font&gt;&lt;/div&gt;&lt;div&gt;&lt;font style=&quot;border-color: var(--border-color);&quot; face=&quot;Lucida Console&quot;&gt;2. 为提供网元的原子能力，&lt;/font&gt;&lt;/div&gt;&lt;/div&gt;" style="text;html=1;align=left;verticalAlign=middle;resizable=0;points=[];autosize=1;strokeColor=none;fillColor=none;" parent="1" vertex="1">
          <mxGeometry x="20" y="-200" width="610" height="510" as="geometry" />
        </mxCell>
      </root>
    </mxGraphModel>
  </diagram>
</mxfile>
